<svg version="1.1" id="Layer_1" xmlns="http://www.w3.org/2000/svg" xmlns:xlink="http://www.w3.org/1999/xlink" x="0px" y="0px"
	 width="100%" viewBox="0 0 316 316" enable-background="new 0 0 316 316" xml:space="preserve">
<path fill="#612672" opacity="1.000000" stroke="none" 
	d="
M216.000000,317.000000 
	C144.000031,317.000000 72.500069,317.000000 1.000077,317.000000 
	C1.000051,211.666748 1.000051,106.333504 1.000026,1.000190 
	C106.333199,1.000126 211.666397,1.000126 316.999695,1.000063 
	C316.999817,106.333153 316.999817,211.666306 316.999908,316.999725 
	C283.500000,317.000000 250.000000,317.000000 216.000000,317.000000 
M217.916809,212.060532 
	C217.949661,215.221024 218.161697,218.391510 217.986145,221.540375 
	C216.886017,241.271851 205.476334,247.732162 188.062378,238.429214 
	C184.159515,236.344193 180.516983,233.771820 177.828812,232.094193 
	C175.338547,234.006973 173.300797,235.572159 171.138763,237.232803 
	C178.774017,243.379974 186.643982,248.181656 195.868866,250.486694 
	C208.111664,253.545822 218.101120,248.660385 223.055847,237.037460 
	C226.402298,229.187225 226.910110,220.937149 225.973206,212.571686 
	C225.882401,211.760880 224.694153,211.072983 223.813293,209.746918 
	C223.540085,208.548218 223.266876,207.349518 223.912415,205.970749 
	C239.050049,204.379578 253.706787,206.244644 268.257874,213.204254 
	C267.652710,209.946472 267.275482,207.850708 266.872833,205.759827 
	C265.324799,197.721115 263.725800,189.691895 262.230377,181.643433 
	C261.208771,176.145248 260.106720,170.940826 262.967224,165.213760 
	C264.783508,161.577362 265.163635,156.242279 264.033844,152.283707 
	C258.830139,134.050934 242.631668,128.575455 227.437561,121.165665 
	C226.400742,124.377228 225.655472,126.685684 224.881638,129.082581 
	C227.188095,130.178513 229.288712,130.858047 231.029205,132.059311 
	C238.215775,137.019318 245.410080,141.986649 252.306427,147.332016 
	C253.596512,148.331970 253.532654,151.078751 254.093613,153.019394 
	C252.443085,152.210693 250.798416,151.389603 249.136169,150.605743 
	C248.865646,150.478165 248.517441,150.515320 247.928284,150.441772 
	C251.061707,166.906555 254.178162,183.282211 257.426605,200.351379 
	C243.237305,196.459549 229.750092,195.252548 215.536362,196.783234 
	C212.647263,197.369919 208.835785,194.421402 206.374252,199.322571 
	C205.254883,199.558273 204.135529,199.793961 202.527466,199.563995 
	C201.301285,199.023010 200.075104,198.482025 199.274490,197.401871 
	C201.154617,196.590332 203.034744,195.778809 205.505310,194.870789 
	C206.008057,194.560745 206.510803,194.250702 207.151321,193.748367 
	C207.151321,193.748367 207.376038,193.822220 208.233185,193.887497 
	C209.821228,193.212952 211.409256,192.538391 213.549805,191.357986 
	C225.181091,186.410110 237.579712,190.121323 249.577896,187.976257 
	C247.184677,175.615402 244.241074,163.151840 242.538986,150.520966 
	C241.621307,143.711044 238.081467,140.885254 231.924637,139.082062 
	C232.777649,143.789368 233.564026,148.171097 234.366913,152.549774 
	C235.593933,159.241501 237.064987,165.902145 237.904785,172.641739 
	C238.118866,174.359695 236.740814,177.510117 235.411804,177.952652 
	C231.577133,179.229416 227.394272,179.460526 222.554688,180.048904 
	C220.958817,178.657074 219.362946,177.265259 217.854782,175.145401 
	C215.029358,168.421967 210.035919,161.715729 209.982407,154.970306 
	C209.927841,148.092682 214.845230,141.218628 217.381851,134.268585 
	C222.902527,119.142738 226.537598,103.668404 224.999542,87.401314 
	C223.016281,66.425598 208.473129,56.998005 189.311279,65.484123 
	C178.525726,70.260674 168.851700,77.547028 158.113983,84.043312 
	C157.772018,83.754326 156.400269,82.560326 154.992172,81.410873 
	C145.799057,73.906387 136.271591,66.958366 124.639732,63.626137 
	C110.385452,59.542637 98.816933,65.310913 95.308411,79.554123 
	C93.441231,87.134148 93.545280,95.316505 93.623520,103.218445 
	C93.676788,108.598427 95.226967,113.963585 96.149147,119.587524 
	C94.737854,120.084732 93.490952,120.472198 92.283363,120.957474 
	C80.188110,125.818047 68.345711,131.126053 59.689922,141.421875 
	C52.896156,149.502884 52.038757,158.358704 56.259956,168.000870 
	C57.235252,170.228638 57.627518,173.090912 57.222004,175.480286 
	C55.124531,187.838943 52.680897,200.138885 50.301788,212.757233 
	C53.787849,211.542404 56.740913,210.416122 59.752762,209.478699 
	C91.691048,199.538055 120.630013,204.516617 145.540009,227.491730 
	C155.426025,236.609848 163.349960,236.811737 173.112305,227.346085 
	C184.358215,216.441971 197.602127,209.202423 214.096634,206.907059 
	C215.415436,208.325104 216.734238,209.743149 217.916809,212.060532 
M133.753647,246.286407 
	C138.322418,243.420761 142.891190,240.555099 147.323883,237.774811 
	C145.142548,235.133438 143.470581,233.108871 141.959595,231.279236 
	C137.877960,233.803146 134.339859,236.324768 130.505493,238.259079 
	C127.289360,239.881516 123.819885,241.360413 120.301895,241.959930 
	C108.803009,243.919495 102.411308,238.460266 101.141075,225.622025 
	C100.674561,220.906982 101.065842,216.107071 101.065842,211.309082 
	C97.726929,211.019821 95.148537,210.796448 91.085938,210.444504 
	C92.238472,218.972748 92.512619,226.979370 94.530365,234.519409 
	C97.497803,245.608276 105.077515,251.463730 115.420433,250.837936 
	C121.378151,250.477478 127.215408,248.126083 133.753647,246.286407 
z"/>
<path fill="#F8F7F7" opacity="1.000000" stroke="none" 
	d="
M207.376038,193.822220 
	C207.376038,193.822220 207.151321,193.748367 206.773529,193.847855 
	C205.902100,194.287308 205.408478,194.627289 204.914871,194.967270 
	C203.034744,195.778809 201.154617,196.590332 198.711548,197.692871 
	C194.120026,200.565750 190.091446,203.147629 186.062866,205.729507 
	C186.280869,206.076981 186.498871,206.424454 186.716873,206.771912 
	C192.149979,204.524506 197.583069,202.277084 203.016159,200.029663 
	C204.135529,199.793961 205.254883,199.558273 207.083344,199.201752 
	C210.548721,198.433456 213.304993,197.786011 216.061279,197.138565 
	C229.750092,195.252548 243.237305,196.459549 257.426605,200.351379 
	C254.178162,183.282211 251.061707,166.906555 247.928284,150.441772 
	C248.517441,150.515320 248.865646,150.478165 249.136169,150.605743 
	C250.798416,151.389603 252.443085,152.210693 254.093613,153.019394 
	C253.532654,151.078751 253.596512,148.331970 252.306427,147.332016 
	C245.410080,141.986649 238.215775,137.019318 231.029205,132.059311 
	C229.288712,130.858047 227.188095,130.178513 224.881638,129.082581 
	C225.655472,126.685684 226.400742,124.377228 227.437561,121.165665 
	C242.631668,128.575455 258.830139,134.050934 264.033844,152.283707 
	C265.163635,156.242279 264.783508,161.577362 262.967224,165.213760 
	C260.106720,170.940826 261.208771,176.145248 262.230377,181.643433 
	C263.725800,189.691895 265.324799,197.721115 266.872833,205.759827 
	C267.275482,207.850708 267.652710,209.946472 268.257874,213.204254 
	C253.706787,206.244644 239.050049,204.379578 223.105652,205.899521 
	C219.282074,206.140579 216.265259,206.452866 213.248444,206.765152 
	C197.602127,209.202423 184.358215,216.441971 173.112305,227.346085 
	C163.349960,236.811737 155.426025,236.609848 145.540009,227.491730 
	C120.630013,204.516617 91.691048,199.538055 59.752762,209.478699 
	C56.740913,210.416122 53.787849,211.542404 50.301788,212.757233 
	C52.680897,200.138885 55.124531,187.838943 57.222004,175.480286 
	C57.627518,173.090912 57.235252,170.228638 56.259956,168.000870 
	C52.038757,158.358704 52.896156,149.502884 59.689922,141.421875 
	C68.345711,131.126053 80.188110,125.818047 92.283363,120.957474 
	C93.490952,120.472198 94.737854,120.084732 96.149147,119.587524 
	C95.226967,113.963585 93.676788,108.598427 93.623520,103.218445 
	C93.545280,95.316505 93.441231,87.134148 95.308411,79.554123 
	C98.816933,65.310913 110.385452,59.542637 124.639732,63.626137 
	C136.271591,66.958366 145.799057,73.906387 154.992172,81.410873 
	C156.400269,82.560326 157.772018,83.754326 158.113983,84.043312 
	C168.851700,77.547028 178.525726,70.260674 189.311279,65.484123 
	C208.473129,56.998005 223.016281,66.425598 224.999542,87.401314 
	C226.537598,103.668404 222.902527,119.142738 217.381851,134.268585 
	C214.845230,141.218628 209.927841,148.092682 209.982407,154.970306 
	C210.035919,161.715729 215.029358,168.421967 217.449493,175.536713 
	C215.030701,176.654572 213.017212,177.381104 210.661987,177.992737 
	C208.199417,173.368057 206.078583,168.858276 203.733490,163.871628 
	C197.534042,175.740021 191.307922,186.651459 180.928833,194.475372 
	C179.378723,195.643860 178.272766,197.401566 176.641190,199.005508 
	C174.195190,202.083862 172.069351,205.043381 169.943512,208.002899 
	C170.352951,208.329788 170.762390,208.656677 171.171829,208.983566 
	C173.502838,206.347412 175.833832,203.711258 178.474365,200.930908 
	C189.678543,192.938248 201.184769,186.254242 214.495132,182.219177 
	C217.713593,181.498688 220.530869,180.800476 223.348160,180.102280 
	C227.394272,179.460526 231.577133,179.229416 235.411804,177.952652 
	C236.740814,177.510117 238.118866,174.359695 237.904785,172.641739 
	C237.064987,165.902145 235.593933,159.241501 234.366913,152.549774 
	C233.564026,148.171097 232.777649,143.789368 231.924637,139.082062 
	C238.081467,140.885254 241.621307,143.711044 242.538986,150.520966 
	C244.241074,163.151840 247.184677,175.615402 249.577896,187.976257 
	C237.579712,190.121323 225.181091,186.410110 212.894424,191.606110 
	C210.618042,192.510239 208.997040,193.166229 207.376038,193.822220 
M130.975266,189.254471 
	C125.384338,181.049896 119.793411,172.845337 114.139557,164.548431 
	C112.929924,167.439713 111.865707,170.409561 110.452866,173.203125 
	C109.583656,174.921753 108.181778,176.370956 106.524490,177.407318 
	C104.627907,176.741257 102.731331,176.075195 100.666573,175.350052 
	C101.451004,172.944168 102.094032,170.971970 103.060699,168.337143 
	C104.759995,164.553085 106.580757,160.816727 108.095306,156.960114 
	C108.655190,155.534439 109.086853,153.589386 108.566040,152.284821 
	C105.317802,144.148514 101.783020,136.126587 98.187218,127.701286 
	C96.049919,128.470001 93.824921,129.092285 91.752434,130.045975 
	C81.918221,134.571396 72.062607,139.145264 65.367233,148.173294 
	C64.337967,149.561157 64.288902,151.675949 63.786518,153.454559 
	C65.340195,152.745422 66.884506,152.014435 68.453552,151.341095 
	C68.895485,151.151459 69.409973,151.130875 70.024193,151.673264 
	C70.065819,152.106842 70.107437,152.540436 69.916374,153.614944 
	C69.886139,154.507050 69.855911,155.399155 69.293671,156.940979 
	C68.484489,161.612335 67.675308,166.283707 66.430305,171.590042 
	C64.646088,180.945999 62.861866,190.301971 60.916111,200.504974 
	C85.442116,193.188553 108.401222,195.753006 130.809570,205.642258 
	C112.682335,190.977493 92.068008,185.420059 68.956421,188.859238 
	C69.819565,183.129028 70.535728,178.374588 71.734184,172.963486 
	C71.990608,171.358093 72.247032,169.752701 72.784874,167.660461 
	C72.803978,167.104095 72.823082,166.547745 73.016937,165.509857 
	C72.998978,165.340042 72.981018,165.170242 73.208946,164.609039 
	C73.365273,164.306915 73.355301,164.010361 73.689583,163.118668 
	C73.757103,162.086807 73.824623,161.054947 74.115814,159.258911 
	C74.726753,156.500793 75.780197,153.755508 75.860756,150.981995 
	C76.056213,144.251556 79.880936,140.968307 86.443985,139.163239 
	C84.338341,150.630478 82.281654,161.831070 80.022736,173.829605 
	C79.759361,175.517929 79.495987,177.206268 79.197838,179.117523 
	C82.094681,179.117523 84.543022,179.117523 87.692757,179.467529 
	C90.797798,179.930283 93.902840,180.393036 97.790451,181.040359 
	C100.147835,181.473663 102.505219,181.906982 105.439072,182.764023 
	C112.161858,185.553574 118.884651,188.343140 126.016624,191.702545 
	C132.720200,196.643890 139.423782,201.585236 147.012848,207.179291 
	C143.074966,199.388046 138.239548,193.680206 130.975266,189.254471 
M134.378311,128.185562 
	C132.985809,130.457458 131.593292,132.729340 129.742691,135.535873 
	C127.061974,140.116470 124.560532,144.815231 121.643723,149.240204 
	C119.319672,152.765900 119.467873,155.747681 121.774879,159.231888 
	C134.409836,178.314087 146.902420,197.490540 159.075790,216.072678 
	C163.606186,209.248978 168.303467,202.250793 172.921783,195.200912 
	C181.106140,182.707489 189.353348,170.251877 197.265793,157.587738 
	C198.314148,155.909821 198.457382,152.582169 197.487091,150.905533 
	C191.751236,140.994064 185.649658,131.288284 179.428741,121.670082 
	C178.532211,120.283936 176.372986,119.035744 174.721909,118.931602 
	C166.758652,118.429306 158.759949,118.506676 150.791916,118.057510 
	C143.129150,117.625542 137.730713,120.484756 134.378311,128.185562 
M107.017677,116.128693 
	C115.651764,114.508141 124.290230,112.910225 132.915024,111.241661 
	C134.152512,111.002251 135.730453,110.777557 136.461227,109.942535 
	C141.879700,103.751091 147.123657,97.406929 152.765869,90.702690 
	C148.910370,87.694565 145.245575,84.585243 141.329666,81.833237 
	C133.738190,76.498116 126.140114,71.293655 116.063690,71.878616 
	C109.439323,72.263168 106.418404,73.763985 104.144112,80.067383 
	C99.836433,92.006561 101.596092,103.928268 104.730057,115.777725 
	C104.810074,116.080269 105.738609,116.158394 107.017677,116.128693 
M212.557510,116.364716 
	C213.006714,116.007286 213.749390,115.724503 213.862061,115.281479 
	C216.462433,105.057114 218.138733,94.754410 215.615936,84.251678 
	C213.036362,73.512650 205.442993,68.831078 194.839584,72.278259 
	C183.623123,75.924759 174.441864,83.053017 165.935547,90.937675 
	C171.422089,97.445511 176.600830,103.695084 181.943039,109.801666 
	C182.684311,110.648972 184.193649,110.991081 185.413177,111.226547 
	C194.205734,112.924210 203.015244,114.534065 212.557510,116.364716 
M201.474091,139.877853 
	C202.227524,141.067917 202.980957,142.257996 204.249878,144.262299 
	C206.856476,137.328873 209.140137,131.254471 211.673828,124.514977 
	C203.990677,123.025314 197.228165,121.714165 189.524857,120.220596 
	C193.892242,127.399323 197.503464,133.335129 201.474091,139.877853 
M119.018211,136.507187 
	C122.084908,131.443069 125.151604,126.378952 129.000549,120.023064 
	C120.883904,121.750961 114.043335,123.207199 106.695374,124.771454 
	C109.390869,131.607346 111.766869,137.632980 114.403511,144.319611 
	C116.123306,141.403748 117.383377,139.267349 119.018211,136.507187 
M157.794220,98.521652 
	C154.570633,102.101715 151.347046,105.681770 147.744919,109.682220 
	C155.793213,109.682220 162.801910,109.682220 170.839432,109.682220 
	C167.066345,105.480476 163.946823,101.914047 160.686768,98.481064 
	C160.225693,97.995522 159.079910,98.160217 157.794220,98.521652 
z"/>
<path fill="#F7F6F7" opacity="1.000000" stroke="none" 
	d="
M133.430267,246.478638 
	C127.215408,248.126083 121.378151,250.477478 115.420433,250.837936 
	C105.077515,251.463730 97.497803,245.608276 94.530365,234.519409 
	C92.512619,226.979370 92.238472,218.972748 91.085938,210.444504 
	C95.148537,210.796448 97.726929,211.019821 101.065842,211.309082 
	C101.065842,216.107071 100.674561,220.906982 101.141075,225.622025 
	C102.411308,238.460266 108.803009,243.919495 120.301895,241.959930 
	C123.819885,241.360413 127.289360,239.881516 130.505493,238.259079 
	C134.339859,236.324768 137.877960,233.803146 141.959595,231.279236 
	C143.470581,233.108871 145.142548,235.133438 147.323883,237.774811 
	C142.891190,240.555099 138.322418,243.420761 133.430267,246.478638 
z"/>
<path fill="#F7F6F7" opacity="1.000000" stroke="none" 
	d="
M224.015350,210.328033 
	C224.694153,211.072983 225.882401,211.760880 225.973206,212.571686 
	C226.910110,220.937149 226.402298,229.187225 223.055847,237.037460 
	C218.101120,248.660385 208.111664,253.545822 195.868866,250.486694 
	C186.643982,248.181656 178.774017,243.379974 171.138763,237.232803 
	C173.300797,235.572159 175.338547,234.006973 177.828812,232.094193 
	C180.516983,233.771820 184.159515,236.344193 188.062378,238.429214 
	C205.476334,247.732162 216.886017,241.271851 217.986145,221.540375 
	C218.161697,218.391510 217.949661,215.221024 218.419342,211.609558 
	C220.619690,210.881729 222.317520,210.604874 224.015350,210.328033 
z"/>
<path fill="#643374" opacity="1.000000" stroke="none" 
	d="
M202.771820,199.796844 
	C197.583069,202.277084 192.149979,204.524506 186.716873,206.771912 
	C186.498871,206.424454 186.280869,206.076981 186.062866,205.729507 
	C190.091446,203.147629 194.120026,200.565750 198.498764,197.962463 
	C200.075104,198.482025 201.301285,199.023010 202.771820,199.796844 
z"/>
<path fill="#5D276D" opacity="1.000000" stroke="none" 
	d="
M222.951416,180.075592 
	C220.530869,180.800476 217.713593,181.498688 214.283234,181.963394 
	C212.781342,180.522476 211.892532,179.315063 211.003723,178.107635 
	C213.017212,177.381104 215.030701,176.654572 217.405640,175.900742 
	C219.362946,177.265259 220.958817,178.657074 222.951416,180.075592 
z"/>
<path fill="#5F2B6D" opacity="1.000000" stroke="none" 
	d="
M223.914322,210.037476 
	C222.317520,210.604874 220.619690,210.881729 218.487457,211.159897 
	C216.734238,209.743149 215.415436,208.325104 213.672546,206.836105 
	C216.265259,206.452866 219.282074,206.140579 222.646271,205.989563 
	C223.266876,207.349518 223.540085,208.548218 223.914322,210.037476 
z"/>
<path fill="#643374" opacity="1.000000" stroke="none" 
	d="
M215.798828,196.960907 
	C213.304993,197.786011 210.548721,198.433456 207.391968,199.046783 
	C208.835785,194.421402 212.647263,197.369919 215.798828,196.960907 
z"/>
<path fill="#643374" opacity="1.000000" stroke="none" 
	d="
M207.804611,193.854858 
	C208.997040,193.166229 210.618042,192.510239 212.618164,191.859039 
	C211.409256,192.538391 209.821228,193.212952 207.804611,193.854858 
z"/>
<path fill="#643374" opacity="1.000000" stroke="none" 
	d="
M205.210083,194.919037 
	C205.408478,194.627289 205.902100,194.287308 206.704636,193.944000 
	C206.510803,194.250702 206.008057,194.560745 205.210083,194.919037 
z"/>
<path fill="#632973" opacity="1.000000" stroke="none" 
	d="
M134.910339,127.768822 
	C137.730713,120.484756 143.129150,117.625542 150.791916,118.057510 
	C158.759949,118.506676 166.758652,118.429306 174.721909,118.931602 
	C176.372986,119.035744 178.532211,120.283936 179.428741,121.670082 
	C185.649658,131.288284 191.751236,140.994064 197.487091,150.905533 
	C198.457382,152.582169 198.314148,155.909821 197.265793,157.587738 
	C189.353348,170.251877 181.106140,182.707489 172.921783,195.200912 
	C168.303467,202.250793 163.606186,209.248978 159.075790,216.072678 
	C146.902420,197.490540 134.409836,178.314087 121.774879,159.231888 
	C119.467873,155.747681 119.319672,152.765900 121.643723,149.240204 
	C124.560532,144.815231 127.061974,140.116470 130.413422,135.266785 
	C133.762695,134.949585 136.441238,134.901474 139.087357,134.865616 
	C139.054916,134.877869 139.044113,134.809357 139.203644,135.021469 
	C139.620819,135.473816 139.878448,135.714066 140.374725,136.004135 
	C140.613373,136.053970 141.033569,136.301239 141.167175,136.426453 
	C141.481995,136.715149 141.666718,136.874634 142.208542,137.230881 
	C143.652405,137.539597 144.742645,137.647491 145.832886,137.755386 
	C145.599182,136.744186 145.604752,135.579620 145.077316,134.756683 
	C144.224075,133.425476 143.020554,132.318771 141.798187,130.956299 
	C141.085342,130.866699 140.539246,130.938049 139.895813,131.126114 
	C139.798462,131.242813 139.496033,131.212585 139.115417,131.150009 
	C137.459976,129.981232 136.185150,128.875031 134.910339,127.768822 
M158.047470,133.942825 
	C158.047470,133.942825 158.131927,133.802078 158.072983,134.632965 
	C158.044754,135.465347 158.016525,136.297714 157.335709,137.454285 
	C149.482559,138.826981 143.674454,143.097778 141.389114,150.712265 
	C139.131912,158.232910 141.177795,164.956161 146.982391,170.692062 
	C149.303986,172.986206 150.455399,176.464539 152.301773,179.687088 
	C162.201584,180.331711 171.281570,174.672409 176.166153,164.094406 
	C180.275772,155.194626 177.398651,147.703491 171.292099,140.567719 
	C171.922745,140.017883 172.553375,139.468048 173.826340,138.778549 
	C174.985718,137.866699 176.398270,137.139343 177.234467,135.991959 
	C178.099274,134.805298 178.404465,133.210800 178.954453,131.794708 
	C177.442932,132.238525 175.931412,132.682343 173.786682,133.117294 
	C173.242279,133.766602 172.697876,134.415909 172.050949,135.710205 
	C172.006378,136.142746 171.961823,136.575272 171.308685,137.280075 
	C169.877029,137.815689 168.445374,138.351318 166.499908,138.969116 
	C166.331512,138.927643 166.163101,138.886154 165.914825,138.175369 
	C164.321777,136.120407 162.728714,134.065430 161.037628,131.334564 
	C161.086868,130.884109 161.136108,130.433655 161.327011,129.758057 
	C161.421783,129.493347 161.378662,129.247070 161.065964,128.250717 
	C160.623322,126.833481 160.180695,125.416245 159.738068,123.999016 
	C159.160263,124.065231 158.582458,124.131454 158.004669,124.197678 
	C157.672653,126.928169 157.340652,129.658661 157.368958,132.957672 
	C157.642319,133.313736 157.915695,133.669785 158.047470,133.942825 
M152.701675,182.960129 
	C147.687988,187.600327 155.778137,187.309113 155.670410,190.347885 
	C155.652115,190.864151 159.106018,192.232452 160.638535,191.869110 
	C162.162476,191.507782 163.286713,189.460571 165.546478,187.186157 
	C161.580963,187.186157 159.433060,187.186157 157.285156,187.186157 
	C159.903046,185.503159 162.652634,185.116837 165.194214,184.171356 
	C166.209961,183.793488 166.767029,182.182556 167.532883,181.132919 
	C166.373856,180.830551 165.136902,180.105972 164.070053,180.302933 
	C160.503845,180.961288 156.998505,181.949417 152.701675,182.960129 
z"/>
<path fill="#622872" opacity="1.000000" stroke="none" 
	d="
M106.644547,116.234940 
	C105.738609,116.158394 104.810074,116.080269 104.730057,115.777725 
	C101.596092,103.928268 99.836433,92.006561 104.144112,80.067383 
	C106.418404,73.763985 109.439323,72.263168 116.063690,71.878616 
	C126.140114,71.293655 133.738190,76.498116 141.329666,81.833237 
	C145.245575,84.585243 148.910370,87.694565 152.765869,90.702690 
	C147.123657,97.406929 141.879700,103.751091 136.461227,109.942535 
	C135.730453,110.777557 134.152512,111.002251 132.915024,111.241661 
	C124.290230,112.910225 115.651764,114.508141 106.644547,116.234940 
z"/>
<path fill="#622872" opacity="1.000000" stroke="none" 
	d="
M212.188446,116.268234 
	C203.015244,114.534065 194.205734,112.924210 185.413177,111.226547 
	C184.193649,110.991081 182.684311,110.648972 181.943039,109.801666 
	C176.600830,103.695084 171.422089,97.445511 165.935547,90.937675 
	C174.441864,83.053017 183.623123,75.924759 194.839584,72.278259 
	C205.442993,68.831078 213.036362,73.512650 215.615936,84.251678 
	C218.138733,94.754410 216.462433,105.057114 213.862061,115.281479 
	C213.749390,115.724503 213.006714,116.007286 212.188446,116.268234 
z"/>
<path fill="#632973" opacity="1.000000" stroke="none" 
	d="
M73.179024,163.719406 
	C73.355301,164.010361 73.365273,164.306915 72.994858,164.911194 
	C72.642654,165.479294 72.663124,165.738632 72.842178,165.991379 
	C72.823082,166.547745 72.803978,167.104095 72.256638,167.742188 
	C71.094162,163.979706 70.459923,160.135483 69.825676,156.291260 
	C69.855911,155.399155 69.886139,154.507050 70.150620,153.102753 
	C70.220299,152.071304 70.055740,151.552032 69.891182,151.032745 
	C69.409973,151.130875 68.895485,151.151459 68.453552,151.341095 
	C66.884506,152.014435 65.340195,152.745422 63.786514,153.454559 
	C64.288902,151.675949 64.337967,149.561157 65.367233,148.173294 
	C72.062607,139.145264 81.918221,134.571396 91.752434,130.045975 
	C93.824921,129.092285 96.049919,128.470001 98.187218,127.701286 
	C101.783020,136.126587 105.317802,144.148514 108.566040,152.284821 
	C109.086853,153.589386 108.655190,155.534439 108.095306,156.960114 
	C106.580757,160.816727 104.759995,164.553085 102.537964,168.739532 
	C101.351524,170.159027 100.496437,171.100937 100.061478,172.207916 
	C98.944191,175.051468 98.013290,177.968277 97.007881,180.855789 
	C93.902840,180.393036 90.797798,179.930283 87.576469,179.087387 
	C88.391953,178.302277 89.323723,177.897293 90.704437,177.297180 
	C86.632912,176.314178 81.608589,178.955307 80.224968,173.031677 
	C82.281654,161.831070 84.338341,150.630478 86.443985,139.163239 
	C79.880936,140.968307 76.056213,144.251556 75.860756,150.981995 
	C75.780197,153.755508 74.726753,156.500793 73.818710,159.974426 
	C73.407417,161.699753 73.293221,162.709579 73.179024,163.719406 
z"/>
<path fill="#632C73" opacity="1.000000" stroke="none" 
	d="
M71.251892,173.620148 
	C70.535728,178.374588 69.819565,183.129028 68.956421,188.859238 
	C92.068008,185.420059 112.682335,190.977493 130.809570,205.642258 
	C108.401222,195.753006 85.442116,193.188553 60.916111,200.504974 
	C62.861866,190.301971 64.646088,180.945999 67.016495,171.354614 
	C68.819084,171.952820 70.035484,172.786484 71.251892,173.620148 
z"/>
<path fill="#632C73" opacity="1.000000" stroke="none" 
	d="
M210.661987,177.992737 
	C211.892532,179.315063 212.781342,180.522476 213.882050,181.985687 
	C201.184769,186.254242 189.678543,192.938248 178.260025,200.697205 
	C177.477875,200.034042 177.219604,199.460358 176.961334,198.886673 
	C178.272766,197.401566 179.378723,195.643860 180.928833,194.475372 
	C191.307922,186.651459 197.534042,175.740021 203.733490,163.871628 
	C206.078583,168.858276 208.199417,173.368057 210.661987,177.992737 
z"/>
<path fill="#642C74" opacity="1.000000" stroke="none" 
	d="
M107.019073,177.941147 
	C108.181778,176.370956 109.583656,174.921753 110.452866,173.203125 
	C111.865707,170.409561 112.929924,167.439713 114.139557,164.548431 
	C119.793411,172.845337 125.384338,181.049896 130.697220,189.745544 
	C128.815262,190.535309 127.211349,190.834000 125.607437,191.132690 
	C118.884651,188.343140 112.161858,185.553574 105.318130,182.240112 
	C105.804489,180.457855 106.411781,179.199509 107.019073,177.941147 
z"/>
<path fill="#642D74" opacity="1.000000" stroke="none" 
	d="
M201.294388,139.574402 
	C197.503464,133.335129 193.892242,127.399323 189.524857,120.220596 
	C197.228165,121.714165 203.990677,123.025314 211.673828,124.514977 
	C209.140137,131.254471 206.856476,137.328873 204.249878,144.262299 
	C202.980957,142.257996 202.227524,141.067917 201.294388,139.574402 
z"/>
<path fill="#632C73" opacity="1.000000" stroke="none" 
	d="
M118.830826,136.819061 
	C117.383377,139.267349 116.123306,141.403748 114.403511,144.319611 
	C111.766869,137.632980 109.390869,131.607346 106.695374,124.771454 
	C114.043335,123.207199 120.883904,121.750961 129.000549,120.023064 
	C125.151604,126.378952 122.084908,131.443069 118.830826,136.819061 
z"/>
<path fill="#652F74" opacity="1.000000" stroke="none" 
	d="
M158.022629,98.272804 
	C159.079910,98.160217 160.225693,97.995522 160.686768,98.481064 
	C163.946823,101.914047 167.066345,105.480476 170.839432,109.682220 
	C162.801910,109.682220 155.793213,109.682220 147.744919,109.682220 
	C151.347046,105.681770 154.570633,102.101715 158.022629,98.272804 
z"/>
<path fill="#612F71" opacity="1.000000" stroke="none" 
	d="
M125.812027,191.417618 
	C127.211349,190.834000 128.815262,190.535309 130.794312,190.076950 
	C138.239548,193.680206 143.074966,199.388046 147.012848,207.179291 
	C139.423782,201.585236 132.720200,196.643890 125.812027,191.417618 
z"/>
<path fill="#5D276D" opacity="1.000000" stroke="none" 
	d="
M106.771782,177.674225 
	C106.411781,179.199509 105.804489,180.457855 105.029892,182.028259 
	C102.505219,181.906982 100.147835,181.473663 97.399170,180.948074 
	C98.013290,177.968277 98.944191,175.051468 100.061478,172.207916 
	C100.496437,171.100937 101.351524,170.159027 102.376144,169.070847 
	C102.094032,170.971970 101.451004,172.944168 100.666573,175.350052 
	C102.731331,176.075195 104.627907,176.741257 106.771782,177.674225 
z"/>
<path fill="#5F2B6D" opacity="1.000000" stroke="none" 
	d="
M71.493034,173.291809 
	C70.035484,172.786484 68.819084,171.952820 67.234406,171.037109 
	C67.675308,166.283707 68.484489,161.612335 69.559677,156.616119 
	C70.459923,160.135483 71.094162,163.979706 72.115936,167.985626 
	C72.247032,169.752701 71.990608,171.358093 71.493034,173.291809 
z"/>
<path fill="#5D276D" opacity="1.000000" stroke="none" 
	d="
M134.644318,127.977188 
	C136.185150,128.875031 137.459976,129.981232 138.996826,131.500732 
	C139.212509,132.893814 139.166153,133.873581 139.119797,134.853363 
	C136.441238,134.901474 133.762695,134.949585 130.642456,134.999481 
	C131.593292,132.729340 132.985809,130.457458 134.644318,127.977188 
z"/>
<path fill="#5F2B6D" opacity="1.000000" stroke="none" 
	d="
M176.641190,199.005508 
	C177.219604,199.460358 177.477875,200.034042 177.950500,200.841400 
	C175.833832,203.711258 173.502838,206.347412 171.171829,208.983566 
	C170.762390,208.656677 170.352951,208.329788 169.943512,208.002899 
	C172.069351,205.043381 174.195190,202.083862 176.641190,199.005508 
z"/>
<path fill="#541F64" opacity="1.000000" stroke="none" 
	d="
M80.123856,173.430634 
	C81.608589,178.955307 86.632912,176.314178 90.704437,177.297180 
	C89.323723,177.897293 88.391953,178.302277 87.225769,178.912384 
	C84.543022,179.117523 82.094681,179.117523 79.197838,179.117523 
	C79.495987,177.206268 79.759361,175.517929 80.123856,173.430634 
z"/>
<path fill="#5F2B6D" opacity="1.000000" stroke="none" 
	d="
M73.434303,163.419037 
	C73.293221,162.709579 73.407417,161.699753 73.706879,160.356506 
	C73.824623,161.054947 73.757103,162.086807 73.434303,163.419037 
z"/>
<path fill="#5F2B6D" opacity="1.000000" stroke="none" 
	d="
M69.957687,151.353012 
	C70.055740,151.552032 70.220299,152.071304 70.266960,152.782288 
	C70.107437,152.540436 70.065819,152.106842 69.957687,151.353012 
z"/>
<path fill="#5F2B6D" opacity="1.000000" stroke="none" 
	d="
M72.929565,165.750610 
	C72.663124,165.738632 72.642654,165.479294 72.871902,165.106903 
	C72.981018,165.170242 72.998978,165.340042 72.929565,165.750610 
z"/>
<path fill="#F9F8F8" opacity="1.000000" stroke="none" 
	d="
M165.994675,138.844650 
	C166.163101,138.886154 166.331512,138.927643 167.037659,139.094940 
	C168.702301,139.849091 169.829163,140.477402 170.956039,141.105713 
	C177.398651,147.703491 180.275772,155.194626 176.166153,164.094406 
	C171.281570,174.672409 162.201584,180.331711 152.301773,179.687088 
	C150.455399,176.464539 149.303986,172.986206 146.982391,170.692062 
	C141.177795,164.956161 139.131912,158.232910 141.389114,150.712265 
	C143.674454,143.097778 149.482559,138.826981 158.032532,137.387756 
	C161.151138,137.829041 163.572906,138.336838 165.994675,138.844650 
M163.000015,164.510941 
	C164.520630,162.251572 166.041260,159.992203 167.801239,157.377197 
	C165.020081,157.229813 162.949692,157.120071 160.608154,156.995987 
	C161.170578,153.340103 161.674133,150.066910 162.177689,146.793716 
	C161.860611,146.679688 161.543518,146.565643 161.226440,146.451599 
	C157.834915,151.162750 154.443390,155.873886 150.785751,160.954681 
	C153.574127,161.199493 155.670776,161.383575 158.174820,161.603424 
	C157.617615,165.254166 157.106735,168.601334 156.595871,171.948502 
	C156.864365,172.024155 157.132858,172.099792 157.401352,172.175430 
	C159.117615,169.806213 160.833893,167.436981 163.000015,164.510941 
z"/>
<path fill="#ECE8ED" opacity="1.000000" stroke="none" 
	d="
M153.085770,182.885681 
	C156.998505,181.949417 160.503845,180.961288 164.070053,180.302933 
	C165.136902,180.105972 166.373856,180.830551 167.532883,181.132935 
	C166.767029,182.182556 166.209961,183.793488 165.194214,184.171356 
	C162.652634,185.116837 159.903046,185.503159 157.285156,187.186157 
	C159.433060,187.186157 161.580963,187.186157 165.546478,187.186157 
	C163.286713,189.460571 162.162476,191.507782 160.638535,191.869110 
	C159.106018,192.232452 155.652115,190.864151 155.670410,190.347885 
	C155.778137,187.309113 147.687988,187.600327 153.085770,182.885681 
z"/>
<path fill="#E4DDE5" opacity="1.000000" stroke="none" 
	d="
M174.419891,133.126160 
	C175.931412,132.682343 177.442932,132.238525 178.954453,131.794708 
	C178.404465,133.210800 178.099274,134.805298 177.234467,135.991959 
	C176.398270,137.139343 174.985718,137.866699 173.377548,138.589417 
	C172.591583,137.936142 172.254410,137.471985 171.917236,137.007812 
	C171.961823,136.575272 172.006378,136.142746 172.397629,135.297241 
	C173.302841,134.298248 173.861374,133.712204 174.419891,133.126160 
z"/>
<path fill="#ECE8ED" opacity="1.000000" stroke="none" 
	d="
M157.008652,132.389145 
	C157.340652,129.658661 157.672653,126.928169 158.004669,124.197678 
	C158.582458,124.131454 159.160263,124.065231 159.738068,123.999016 
	C160.180695,125.416245 160.623322,126.833481 161.075958,128.875305 
	C161.085953,129.499908 161.185349,129.983200 161.185349,129.983200 
	C161.136108,130.433655 161.086868,130.884109 160.953979,131.975128 
	C159.957535,133.011169 159.044739,133.406616 158.131927,133.802078 
	C158.131927,133.802078 158.047470,133.942825 158.025955,133.640930 
	C157.672516,133.022415 157.340576,132.705780 157.008652,132.389145 
z"/>
<path fill="#F2F0F2" opacity="1.000000" stroke="none" 
	d="
M139.087357,134.865601 
	C139.166153,133.873581 139.212509,132.893814 139.377457,131.563324 
	C139.496033,131.212585 139.798462,131.242813 140.224121,131.151031 
	C141.088181,131.078598 141.526566,131.097931 141.964951,131.117264 
	C143.020554,132.318771 144.224075,133.425476 145.077316,134.756683 
	C145.604752,135.579620 145.599182,136.744186 145.832886,137.755386 
	C144.742645,137.647491 143.652405,137.539597 142.156616,137.027008 
	C141.594055,136.331741 141.354889,136.224716 141.033569,136.301239 
	C141.033569,136.301239 140.613373,136.053970 140.277679,135.741653 
	C139.642685,135.222672 139.343399,135.016006 139.044113,134.809357 
	C139.044113,134.809357 139.054916,134.877869 139.087357,134.865601 
z"/>
<path fill="#5D276D" opacity="1.000000" stroke="none" 
	d="
M158.102448,134.217529 
	C159.044739,133.406616 159.957535,133.011169 161.002991,132.313080 
	C162.728714,134.065430 164.321777,136.120407 165.954742,138.510010 
	C163.572906,138.336838 161.151138,137.829041 158.358826,137.225662 
	C158.016525,136.297714 158.044754,135.465347 158.102448,134.217529 
z"/>
<path fill="#5D276D" opacity="1.000000" stroke="none" 
	d="
M171.612961,137.143951 
	C172.254410,137.471985 172.591583,137.936142 173.056396,138.659256 
	C172.553375,139.468048 171.922745,140.017883 171.124069,140.836716 
	C169.829163,140.477402 168.702301,139.849091 167.294571,139.053864 
	C168.445374,138.351318 169.877029,137.815689 171.612961,137.143951 
z"/>
<path fill="#5D276D" opacity="1.000000" stroke="none" 
	d="
M174.103287,133.121735 
	C173.861374,133.712204 173.302841,134.298248 172.448883,134.974762 
	C172.697876,134.415909 173.242279,133.766602 174.103287,133.121735 
z"/>
<path fill="#5D276D" opacity="1.000000" stroke="none" 
	d="
M141.798187,130.956299 
	C141.526566,131.097931 141.088181,131.078598 140.321472,131.034332 
	C140.539246,130.938049 141.085342,130.866699 141.798187,130.956299 
z"/>
<path fill="#5D276D" opacity="1.000000" stroke="none" 
	d="
M157.188812,132.673401 
	C157.340576,132.705780 157.672516,133.022415 158.096741,133.682449 
	C157.915695,133.669785 157.642319,133.313736 157.188812,132.673401 
z"/>
<path fill="#5D276D" opacity="1.000000" stroke="none" 
	d="
M141.167175,136.426453 
	C141.354889,136.224716 141.594055,136.331741 141.802994,136.826202 
	C141.666718,136.874634 141.481995,136.715149 141.167175,136.426453 
z"/>
<path fill="#5D276D" opacity="1.000000" stroke="none" 
	d="
M161.256180,129.870636 
	C161.185349,129.983200 161.085953,129.499908 161.141815,129.259583 
	C161.378662,129.247070 161.421783,129.493347 161.256180,129.870636 
z"/>
<path fill="#5D276D" opacity="1.000000" stroke="none" 
	d="
M139.203644,135.021469 
	C139.343399,135.016006 139.642685,135.222672 140.039032,135.691818 
	C139.878448,135.714066 139.620819,135.473816 139.203644,135.021469 
z"/>
<path fill="#643374" opacity="1.000000" stroke="none" 
	d="
M162.775085,164.789352 
	C160.833893,167.436981 159.117615,169.806213 157.401352,172.175430 
	C157.132858,172.099792 156.864365,172.024155 156.595871,171.948502 
	C157.106735,168.601334 157.617615,165.254166 158.174820,161.603424 
	C155.670776,161.383575 153.574127,161.199493 150.785751,160.954681 
	C154.443390,155.873886 157.834915,151.162750 161.226440,146.451599 
	C161.543518,146.565643 161.860611,146.679688 162.177689,146.793716 
	C161.674133,150.066910 161.170578,153.340103 160.608154,156.995987 
	C162.949692,157.120071 165.020081,157.229813 167.801239,157.377197 
	C166.041260,159.992203 164.520630,162.251572 162.775085,164.789352 
z"/>
</svg>